<?xml version="1.0" encoding="UTF-8" standalone="no"?>
<!DOCTYPE svg PUBLIC "-//W3C//DTD SVG 1.1//EN"
 "http://www.w3.org/Graphics/SVG/1.1/DTD/svg11.dtd">
<!-- Generated by graphviz version 7.0.6 (20230106.0513)
 -->
<!-- Title: dependency&#45;cruiser output Pages: 1 -->
<svg width="264pt" height="170pt"
 viewBox="0.00 0.00 264.00 170.00" xmlns="http://www.w3.org/2000/svg" xmlns:xlink="http://www.w3.org/1999/xlink">
<g id="graph0" class="graph" transform="scale(1 1) rotate(0) translate(4 166)">
<title>dependency&#45;cruiser output</title>
<polygon fill="white" stroke="none" points="-4,4 -4,-166 260,-166 260,4 -4,4"/>
<g id="clust1" class="cluster">
<title>cluster_src</title>
<path fill="#ffffff" stroke="black" stroke-width="2" d="M20,-8C20,-8 236,-8 236,-8 242,-8 248,-14 248,-20 248,-20 248,-142 248,-142 248,-148 242,-154 236,-154 236,-154 20,-154 20,-154 14,-154 8,-148 8,-142 8,-142 8,-20 8,-20 8,-14 14,-8 20,-8"/>
<text text-anchor="middle" x="128" y="-142.8" font-family="Helvetica,sans-Serif" font-weight="bold" font-size="9.00">src</text>
</g>
<g id="clust2" class="cluster">
<title>cluster_src/components</title>
<path fill="#ffffff" stroke="black" stroke-width="2" d="M177.5,-16C177.5,-16 223.5,-16 223.5,-16 229.5,-16 235.5,-22 235.5,-28 235.5,-28 235.5,-56 235.5,-56 235.5,-62 229.5,-68 223.5,-68 223.5,-68 177.5,-68 177.5,-68 171.5,-68 165.5,-62 165.5,-56 165.5,-56 165.5,-28 165.5,-28 165.5,-22 171.5,-16 177.5,-16"/>
<text text-anchor="middle" x="200.5" y="-56.8" font-family="Helvetica,sans-Serif" font-weight="bold" font-size="9.00">components</text>
</g>
<g id="clust3" class="cluster">
<title>cluster_src/hooks</title>
<path fill="#ffffff" stroke="black" stroke-width="2" d="M173,-76C173,-76 228,-76 228,-76 234,-76 240,-82 240,-88 240,-88 240,-116 240,-116 240,-122 234,-128 228,-128 228,-128 173,-128 173,-128 167,-128 161,-122 161,-116 161,-116 161,-88 161,-88 161,-82 167,-76 173,-76"/>
<text text-anchor="middle" x="200.5" y="-116.8" font-family="Helvetica,sans-Serif" font-weight="bold" font-size="9.00">hooks</text>
</g>
<!-- src/App.jsx -->
<g id="node1" class="node">
<title>src/App.jsx</title>
<g id="a_node1"><a xlink:href="src/App.jsx" xlink:title="App.jsx">
<path fill="#ffff77" stroke="black" d="M146.5,-100C146.5,-100 104.5,-100 104.5,-100 101.5,-100 98.5,-97 98.5,-94 98.5,-94 98.5,-88 98.5,-88 98.5,-85 101.5,-82 104.5,-82 104.5,-82 146.5,-82 146.5,-82 149.5,-82 152.5,-85 152.5,-88 152.5,-88 152.5,-94 152.5,-94 152.5,-97 149.5,-100 146.5,-100"/>
<text text-anchor="start" x="110" y="-88.8" font-family="Helvetica,sans-Serif" font-size="9.00">App.jsx</text>
</a>
</g>
</g>
<!-- src/components/Todo.jsx -->
<g id="node2" class="node">
<title>src/components/Todo.jsx</title>
<g id="a_node2"><a xlink:href="src/components/Todo.jsx" xlink:title="Todo.jsx">
<path fill="#ffff77" stroke="black" d="M221.5,-42C221.5,-42 179.5,-42 179.5,-42 176.5,-42 173.5,-39 173.5,-36 173.5,-36 173.5,-30 173.5,-30 173.5,-27 176.5,-24 179.5,-24 179.5,-24 221.5,-24 221.5,-24 224.5,-24 227.5,-27 227.5,-30 227.5,-30 227.5,-36 227.5,-36 227.5,-39 224.5,-42 221.5,-42"/>
<text text-anchor="start" x="183.5" y="-30.8" font-family="Helvetica,sans-Serif" font-size="9.00">Todo.jsx</text>
</a>
</g>
</g>
<!-- src/App.jsx&#45;&gt;src/components/Todo.jsx -->
<g id="edge1" class="edge">
<title>src/App.jsx&#45;&gt;src/components/Todo.jsx</title>
<path fill="none" stroke="#000000" stroke-width="2" stroke-opacity="0.200000" d="M144.53,-81.54C147.43,-79.81 150.35,-77.93 153,-76 164.32,-67.73 175.9,-57.03 184.67,-48.38"/>
<polygon fill="#000000" fill-opacity="0.200000" stroke="#000000" stroke-width="2" stroke-opacity="0.200000" points="185.91,-50.11 188.65,-44.38 182.93,-47.15 185.91,-50.11"/>
</g>
<!-- src/hooks/useFetch.js -->
<g id="node3" class="node">
<title>src/hooks/useFetch.js</title>
<g id="a_node3"><a xlink:href="src/hooks/useFetch.js" xlink:title="useFetch.js">
<path fill="#ffffcc" stroke="black" d="M226,-102C226,-102 175,-102 175,-102 172,-102 169,-99 169,-96 169,-96 169,-90 169,-90 169,-87 172,-84 175,-84 175,-84 226,-84 226,-84 229,-84 232,-87 232,-90 232,-90 232,-96 232,-96 232,-99 229,-102 226,-102"/>
<text text-anchor="start" x="177" y="-90.8" font-family="Helvetica,sans-Serif" font-size="9.00">useFetch.js</text>
</a>
</g>
</g>
<!-- src/App.jsx&#45;&gt;src/hooks/useFetch.js -->
<g id="edge2" class="edge">
<title>src/App.jsx&#45;&gt;src/hooks/useFetch.js</title>
<path fill="none" stroke="#000000" stroke-width="2" stroke-opacity="0.200000" d="M152.85,-91.72C155.11,-91.78 157.41,-91.85 159.74,-91.91"/>
<polygon fill="#000000" fill-opacity="0.200000" stroke="#000000" stroke-width="2" stroke-opacity="0.200000" points="159.63,-94.01 165.69,-92.07 159.75,-89.81 159.63,-94.01"/>
</g>
<!-- src/App.test.jsx -->
<g id="node4" class="node">
<title>src/App.test.jsx</title>
<g id="a_node4"><a xlink:href="src/App.test.jsx" xlink:title="App.test.jsx">
<path fill="#ffff77" stroke="black" d="M76,-100C76,-100 25,-100 25,-100 22,-100 19,-97 19,-94 19,-94 19,-88 19,-88 19,-85 22,-82 25,-82 25,-82 76,-82 76,-82 79,-82 82,-85 82,-88 82,-88 82,-94 82,-94 82,-97 79,-100 76,-100"/>
<text text-anchor="start" x="27" y="-88.8" font-family="Helvetica,sans-Serif" font-size="9.00">App.test.jsx</text>
</a>
</g>
</g>
<!-- src/App.test.jsx&#45;&gt;src/App.jsx -->
<g id="edge3" class="edge">
<title>src/App.test.jsx&#45;&gt;src/App.jsx</title>
<path fill="none" stroke="#000000" stroke-width="2" stroke-opacity="0.200000" d="M82.46,-91C84.77,-91 87.11,-91 89.45,-91"/>
<polygon fill="#000000" fill-opacity="0.200000" stroke="#000000" stroke-width="2" stroke-opacity="0.200000" points="89.31,-93.1 95.31,-91 89.31,-88.9 89.31,-93.1"/>
</g>
<!-- src/index.css -->
<g id="node5" class="node">
<title>src/index.css</title>
<g id="a_node5"><a xlink:href="src/index.css" xlink:title="index.css">
<path fill="#ffffcc" stroke="black" d="M147,-70C147,-70 104,-70 104,-70 101,-70 98,-67 98,-64 98,-64 98,-58 98,-58 98,-55 101,-52 104,-52 104,-52 147,-52 147,-52 150,-52 153,-55 153,-58 153,-58 153,-64 153,-64 153,-67 150,-70 147,-70"/>
<text text-anchor="start" x="106" y="-58.8" font-family="Helvetica,sans-Serif" font-size="9.00">index.css</text>
</a>
</g>
</g>
<!-- src/main.jsx -->
<g id="node6" class="node">
<title>src/main.jsx</title>
<g id="a_node6"><a xlink:href="src/main.jsx" xlink:title="main.jsx">
<path fill="#ffff77" stroke="black" d="M71.5,-70C71.5,-70 29.5,-70 29.5,-70 26.5,-70 23.5,-67 23.5,-64 23.5,-64 23.5,-58 23.5,-58 23.5,-55 26.5,-52 29.5,-52 29.5,-52 71.5,-52 71.5,-52 74.5,-52 77.5,-55 77.5,-58 77.5,-58 77.5,-64 77.5,-64 77.5,-67 74.5,-70 71.5,-70"/>
<text text-anchor="start" x="33.5" y="-58.8" font-family="Helvetica,sans-Serif" font-size="9.00">main.jsx</text>
</a>
</g>
</g>
<!-- src/main.jsx&#45;&gt;src/App.jsx -->
<g id="edge4" class="edge">
<title>src/main.jsx&#45;&gt;src/App.jsx</title>
<path fill="none" stroke="#000000" stroke-width="2" stroke-opacity="0.200000" d="M74.6,-70.49C80.51,-72.92 86.97,-75.58 93.23,-78.15"/>
<polygon fill="#000000" fill-opacity="0.200000" stroke="#000000" stroke-width="2" stroke-opacity="0.200000" points="92.4,-80.08 98.75,-80.42 94,-76.2 92.4,-80.08"/>
</g>
<!-- src/main.jsx&#45;&gt;src/index.css -->
<g id="edge5" class="edge">
<title>src/main.jsx&#45;&gt;src/index.css</title>
<path fill="none" stroke="#000000" stroke-width="2" stroke-opacity="0.200000" d="M77.85,-61C81.53,-61 85.35,-61 89.16,-61"/>
<polygon fill="#000000" fill-opacity="0.200000" stroke="#000000" stroke-width="2" stroke-opacity="0.200000" points="88.91,-63.1 94.91,-61 88.91,-58.9 88.91,-63.1"/>
</g>
<!-- src/setupTests.js -->
<g id="node7" class="node">
<title>src/setupTests.js</title>
<g id="a_node7"><a xlink:href="src/setupTests.js" xlink:title="setupTests.js">
<path fill="#ccffcc" stroke="black" d="M79,-38C79,-38 22,-38 22,-38 19,-38 16,-35 16,-32 16,-32 16,-26 16,-26 16,-23 19,-20 22,-20 22,-20 79,-20 79,-20 82,-20 85,-23 85,-26 85,-26 85,-32 85,-32 85,-35 82,-38 79,-38"/>
<text text-anchor="start" x="24" y="-26.8" font-family="Helvetica,sans-Serif" font-size="9.00">setupTests.js</text>
</a>
</g>
</g>
</g>
</svg>
